<svg
  width="40"
  height="31"
  viewBox="0 0 40 31"
  fill="none"
  xmlns="http://www.w3.org/2000/svg"
>
  <path
    d="M17.7816 3.11973L14.8827 12.3021L12.7261 7.94403C11.6974 5.8652 8.49724 6.40467 8.32097 8.79615L7.88011 14.7774L5.75776 11.6249C4.45217 9.68561 1.25866 10.6742 1.51261 13.1466L2.97894 27.422C3.13483 28.9397 4.67372 29.8574 6.06742 29.3671L12.5546 27.085L16.4673 26.3421H23.5328L27.4454 27.085L33.9326 29.3671C35.3263 29.8574 36.8652 28.9397 37.0211 27.422L38.4874 13.1466C38.7413 10.6742 35.5478 9.68562 34.2422 11.6249L32.1199 14.7773L31.6791 8.79615C31.5028 6.40467 28.3027 5.8652 27.274 7.94403L25.1173 12.3023L22.2183 3.11973C21.5365 0.960085 18.4634 0.960093 17.7816 3.11973Z"
    fill="#F4C10B"
    stroke="#A28009"
    stroke-width="3"
  />
  <path
    d="M21.7324 13.2575C21.3007 11.5808 18.6993 11.5808 18.2676 13.2575L17.0485 17.9919C16.7845 19.0172 17.6324 20 18.7809 20H21.2191C22.3676 20 23.2155 19.0172 22.9515 17.9919L21.7324 13.2575Z"
    fill="#FFE793"
  />
</svg>
